#!OML:ASF H:\Martial Arts Walks\Project 1\Capture day 1\Session 1\male.ASF
:FULLY-SPECIFIED
:DEGREES
1375
root -3.71977 13.4778 42.282 7.21595 13.1757 9.25388
lowerback 12.9731 -5.76694 -17.3434
upperback -2.72501 -10.4532 1.46627
thorax -6.96908 -4.30009 13.007
lowerneck 12.0757 -19.0635 -20.9037
upperneck 0.264336 -28.6805 22.8834
head 4.56883 -14.9044 8.58222
rclavicle 5.97099e-014 -3.77691e-015
rhumerus -31.1015 22.9438 -78.3887
rradius 35.7871
rwrist 9.0157
rhand -4.95675 -43.4605
rfingers 7.12502
rthumb 20.835 -72.3617
lclavicle 5.97099e-014 -3.77691e-015
lhumerus -28.4679 -5.18681 85.9125
lradius 29.9422
lwrist -18.4664
lhand -20.8904 22.9371
lfingers 7.12502
lthumb 5.48018 52.8462
rfemur -66.335 -20.586 7.63447
rtibia 74.8496
rfoot -11.0678 12.305
rtoes 0.278445
lfemur 20.2977 6.74789 -16.2137
ltibia 24.1832
lfoot -27.6454 32.6919
ltoes -25.0537
1376
root -3.71404 13.48 42.2811 7.23238 13.1959 9.23088
lowerback 12.9771 -5.79794 -17.3408
upperback -2.71372 -10.4913 1.49455
thorax -6.94034 -4.32274 13.039
lowerneck 12.0492 -19.061 -20.8903
upperneck 0.248686 -28.6709 22.9122
head 4.56913 -14.8989 8.58839
rclavicle 1.80397e-014 -1.37161e-014
rhumerus -31.0188 22.929 -78.3617
rradius 35.4859
rwrist 9.05449
rhand -4.88735 -43.497
rfingers 7.12502
rthumb 20.9016 -72.391
lclavicle 1.80397e-014 -1.37161e-014
lhumerus -28.2552 -5.28724 85.9086
lradius 30.0841
lwrist -18.3481
lhand -21.0132 23.0456
lfingers 7.12502
lthumb 5.36161 52.9577
rfemur -66.3201 -20.586 7.62267
rtibia 74.8254
rfoot -10.9981 12.3232
rtoes 0.553072
lfemur 20.2795 6.73388 -16.2159
ltibia 24.1756
lfoot -27.6035 32.7103
ltoes -25.106
1377
root -3.70744 13.4827 42.2786 7.21613 13.1988 9.17536
lowerback 13.0233 -5.79724 -17.268
upperback -2.72246 -10.4871 1.51271
thorax -6.98583 -4.31767 13.0288
lowerneck 12.079 -19.0705 -20.8649
upperneck 0.227463 -28.6804 22.9005
head 4.55453 -14.9054 8.58517
rclavicle -4.73604e-014 1.27222e-014
rhumerus -31.0162 22.8117 -78.3155
rradius 35.2132
rwrist 9.12709
rhand -4.89945 -43.4097
rfingers 7.12502
rthumb 20.89 -72.3049
lclavicle -4.73604e-014 1.27222e-014
lhumerus -28.0905 -5.45915 85.9376
lradius 30.2695
lwrist -18.4411
lhand -20.8006 23.6174
lfingers 7.12502
lthumb 5.56683 53.5243
rfemur -66.2889 -20.5748 7.66212
rtibia 74.7722
rfoot -11.0268 12.2652
rtoes -0.0355401
lfemur 20.2464 6.72172 -16.195
ltibia 24.2512
lfoot -27.7065 32.7215
ltoes -25.0064
1378
root -3.70549 13.4829 42.2806 7.28787 13.1524 9.14912
lowerback 12.9491 -5.82135 -17.3388
upperback -2.71208 -10.5122 1.55299
thorax -6.90404 -4.33703 13.0998
lowerneck 11.9498 -19.0898 -20.7632
upperneck 0.243851 -28.6712 22.8553
head 4.55528 -14.8915 8.54805
rclavicle -1.77043e-013 2.10712e-014
rhumerus -30.7261 22.8025 -78.266
rradius 34.8038
rwrist 9.17051
rhand -4.83859 -43.3806
rfingers 7.12502
rthumb 20.9485 -72.2694
lclavicle -1.77043e-013 2.10712e-014
lhumerus -27.8608 -5.50861 85.8994
lradius 30.3643
lwrist -18.1071
lhand -21.2984 22.9861
lfingers 7.12502
lthumb 5.08626 52.9051
rfemur -66.3685 -20.4693 7.6771
rtibia 74.7354
rfoot -10.926 12.2379
rtoes -0.0962392
lfemur 20.1464 6.77564 -16.1852
ltibia 24.301
lfoot -27.715 32.7396
ltoes -25.059
1379
root -3.70599 13.4894 42.2823 7.3214 13.0651 8.74615
lowerback 12.8094 -5.80974 -17.0373
upperback -2.75249 -10.416 1.68319
thorax -6.92347 -4.29817 13.057
lowerneck 12.0147 -19.0981 -20.7944
upperneck 0.26664 -28.6992 22.8405
head 4.56006 -14.9085 8.54835
rclavicle -8.36883e-014 3.20043e-014
rhumerus -30.7952 22.6676 -78.2105
rradius 34.6232
rwrist 9.23376
rhand -4.85433 -43.3454
rfingers 7.12502
rthumb 20.9334 -72.2359
lclavicle -8.36883e-014 3.20043e-014
lhumerus -27.7152 -5.66404 85.9498
lradius 30.458
lwrist -18.0707
lhand -21.4215 23.0696
lfingers 7.12502
lthumb 4.96735 52.9913
rfemur -66.4432 -20.1622 8.11642
rtibia 74.6546
rfoot -10.9311 12.0075
rtoes 0.357791
lfemur 20.0111 6.88163 -15.7818
ltibia 24.3336
lfoot -27.7856 32.6861
ltoes -24.9774
1380
root -3.6989 13.4896 42.2804 7.37645 13.1014 8.9002
lowerback 12.8335 -5.82313 -17.1485
upperback -2.76376 -10.4606 1.64261
thorax -6.9259 -4.31427 13.0799
lowerneck 12.009 -19.1138 -20.7822
upperneck 0.275906 -28.7217 22.8604
head 4.57022 -14.9194 8.54737
rclavicle -1.25557e-013 -1.90833e-014
rhumerus -30.918 22.6065 -78.1894
rradius 34.5598
rwrist 9.24247
rhand -5.00679 -43.2296
rfingers 7.12502
rthumb 20.7869 -72.1361
lclavicle -1.25557e-013 -1.90833e-014
lhumerus -27.5257 -5.80857 85.9525
lradius 30.5991
lwrist -17.7677
lhand -21.479 23.1173
lfingers 7.12502
lthumb 4.91187 53.0404
rfemur -66.4693 -20.2734 7.94067
rtibia 74.6513
rfoot -10.9447 12.0193
rtoes -0.421734
lfemur 19.9692 6.85081 -15.9715
ltibia 24.3607
lfoot -27.8114 32.7079
ltoes -25.0289
1381
root -3.69312 13.4863 42.2822 7.37048 13.087 9.08508
lowerback 12.8882 -5.82136 -17.3581
upperback -2.75858 -10.5049 1.60856
thorax -6.9107 -4.32851 13.1672
lowerneck 11.9568 -19.1281 -20.7699
upperneck 0.331976 -28.7369 22.818
head 4.58949 -14.9217 8.52266
rclavicle 1.11816e-015 3.97569e-015
rhumerus -30.9081 22.6828 -78.1773
rradius 34.3875
rwrist 9.21049
rhand -5.02996 -43.2074
rfingers 7.12502
rthumb 20.7646 -72.1164
lclavicle 1.11816e-015 3.97569e-015
lhumerus -27.3658 -5.8508 85.9439
lradius 30.7326
lwrist -17.6808
lhand -21.4896 23.1907
lfingers 7.12502
lthumb 4.90162 53.114
rfemur -66.4305 -20.3216 7.69251
rtibia 74.6554
rfoot -10.942 12.0901
rtoes -0.247831
lfemur 20.0573 6.8585 -16.1774
ltibia 24.3227
lfoot -27.8727 32.6641
ltoes -24.8861
1382
root -3.69241 13.4886 42.2871 7.35547 13.0177 8.90218
lowerback 12.7995 -5.79009 -17.2484
upperback -2.7626 -10.4251 1.65998
thorax -6.89841 -4.29548 13.1459
lowerneck 12.0185 -19.1368 -20.8007
upperneck 0.331 -28.7654 22.8471
head 4.59515 -14.9401 8.53573
rclavicle 6.74377e-014 4.17448e-014
rhumerus -31.0142 22.5613 -78.1382
rradius 34.283
rwrist 9.25949
rhand -4.85815 -43.2357
rfingers 7.12502
rthumb 20.9297 -72.1265
lclavicle 6.74377e-014 4.17448e-014
lhumerus -27.2643 -6.04216 85.9952
lradius 30.9005
lwrist -17.5546
lhand -21.6334 23.3035
lfingers 7.12502
lthumb 4.76273 53.23
rfemur -66.4395 -20.1321 7.86754
rtibia 74.6322
rfoot -10.8949 11.9733
rtoes -0.842838
lfemur 20.1176 6.9377 -15.9896
ltibia 24.1825
lfoot -27.7908 32.6283
ltoes -24.9071
1383
root -3.68527 13.4982 42.2889 7.38661 13.025 8.91705
lowerback 12.7845 -5.79433 -17.235
upperback -2.77419 -10.4275 1.65284
thorax -6.90572 -4.29584 13.1293
lowerneck 12.0302 -19.1446 -20.808
upperneck 0.330818 -28.7809 22.8665
head 4.60098 -14.9488 8.54026
rclavicle -9.37518e-014 -3.63776e-014
rhumerus -30.9695 22.5074 -78.097
rradius 34.1045
rwrist 9.2827
rhand -4.87002 -43.2337
rfingers 7.12502
rthumb 20.9183 -72.1258
lclavicle -9.37518e-014 -3.63776e-014
lhumerus -27.1328 -6.10765 85.9841
lradius 31.0777
lwrist -17.3676
lhand -21.536 23.1914
lfingers 7.12502
lthumb 4.85682 53.1158
rfemur -66.3838 -20.1605 7.82719
rtibia 74.5785
rfoot -10.9304 11.982
rtoes -0.996589
lfemur 20.1562 7.17239 -15.8914
ltibia 24.0482
lfoot -27.6364 32.4558
ltoes -25.1533
1384
root -3.6779 13.4972 42.2897 7.43471 13.0748 9.16602
lowerback 12.8559 -5.81404 -17.4524
upperback -2.81457 -10.5113 1.60219
thorax -6.94072 -4.32028 13.2125
lowerneck 12.0668 -19.1313 -20.8757
upperneck 0.35108 -28.7839 22.8937
head 4.61643 -14.9528 8.55757
rclavicle -9.6659e-015 -2.40529e-014
rhumerus -31.0841 22.4633 -78.0706
rradius 34.0594
rwrist 9.35271
rhand -4.76456 -43.1957
rfingers 7.12502
rthumb 21.0196 -72.0766
lclavicle -9.6659e-015 -2.40529e-014
lhumerus -27.0881 -6.06304 85.9734
lradius 31.3148
lwrist -17.3854
lhand -21.5151 23.3109
lfingers 7.12502
lthumb 4.877 53.2348
rfemur -66.3534 -20.3272 7.52177
rtibia 74.598
rfoot -10.9251 12.0949
rtoes -0.744772
lfemur 20.1878 7.2103 -16.1159
ltibia 24.0022
lfoot -27.6127 32.3841
ltoes -25.1664
1385
root -3.67106 13.5042 42.2892 7.44153 13.1181 8.99987
lowerback 12.8325 -5.8549 -17.2641
upperback -2.81138 -10.5268 1.64435
thorax -6.93907 -4.33682 13.1538
lowerneck 12.0376 -19.1349 -20.8591
upperneck 0.350637 -28.7835 22.9082
head 4.6208 -14.9511 8.55663
rclavicle -5.889e-015 -8.74653e-015
rhumerus -31.0308 22.4363 -78.0465
rradius 33.9441
rwrist 9.4256
rhand -4.83033 -43.1075
rfingers 7.12502
rthumb 20.9564 -71.9954
lclavicle -5.889e-015 -8.74653e-015
lhumerus -26.9491 -6.1591 85.9564
lradius 31.4652
lwrist -17.1461
lhand -21.6417 23.1763
lfingers 7.12502
lthumb 4.75473 53.1029
rfemur -66.3367 -20.3418 7.69821
rtibia 74.5642
rfoot -10.9712 12.0387
rtoes -0.913936
lfemur 20.185 7.20609 -15.9627
ltibia 23.9217
lfoot -27.5993 32.36
ltoes -25.2142
